<svg width="80" height="80" viewBox="0 0 80 80" fill="none" xmlns="http://www.w3.org/2000/svg">
<path d="M54.9939 17C63.2734 17 69.9853 23.0059 69.9853 30.4146C69.9853 31.3729 70.0184 31.9017 69.9853 32.8537C69.3758 50.4068 40.0024 67 40.0024 67C40.0024 67 10.7198 50.6592 10.0195 33.2169C9.97561 32.1234 10.0195 31.2947 10.0195 30.4146C10.0195 23.0059 16.7314 17 25.011 17C33.2905 17 40.0082 22.6162 40.0082 30.0249C40.0246 29.8466 40.0082 30.2128 40.0082 30.0249C40.0082 29.4747 40.0362 29.4759 40.0082 30.0249C39.9992 30.025 40.0082 29.4747 40.0082 30.0249C40.0082 30.2116 39.9912 29.8455 40.0082 30.0249C40.0082 22.6162 46.7143 17 54.9939 17Z" fill="#CB0003"/>
</svg>
